<svg xmlns="http://www.w3.org/2000/svg" viewBox="0 0 100 100">
  <circle cx="50" cy="50" r="48" fill="#0d0d14"/>
  <!-- Connections -->
  <g stroke="#1e8c4b" stroke-width="1.5" opacity="0.7">
    <line x1="50" y1="50" x2="50" y2="22"/>
    <line x1="50" y1="50" x2="74" y2="36"/>
    <line x1="50" y1="50" x2="74" y2="64"/>
    <line x1="50" y1="50" x2="50" y2="78"/>
    <line x1="50" y1="50" x2="26" y2="64"/>
    <line x1="50" y1="50" x2="26" y2="36"/>
    <line x1="50" y1="22" x2="74" y2="36"/>
    <line x1="74" y1="36" x2="74" y2="64"/>
    <line x1="74" y1="64" x2="50" y2="78"/>
    <line x1="50" y1="78" x2="26" y2="64"/>
    <line x1="26" y1="64" x2="26" y2="36"/>
    <line x1="26" y1="36" x2="50" y2="22"/>
  </g>
  <!-- Outer nodes -->
  <circle cx="50" cy="22" r="4" fill="#2ECC71"/>
  <circle cx="74" cy="36" r="4" fill="#2ECC71"/>
  <circle cx="74" cy="64" r="4" fill="#2ECC71"/>
  <circle cx="50" cy="78" r="4" fill="#2ECC71"/>
  <circle cx="26" cy="64" r="4" fill="#2ECC71"/>
  <circle cx="26" cy="36" r="4" fill="#2ECC71"/>
  <!-- Center node with glow -->
  <circle cx="50" cy="50" r="12" fill="#2ECC71" opacity="0.2"/>
  <circle cx="50" cy="50" r="8" fill="#2ECC71"/>
  <circle cx="50" cy="50" r="3" fill="white" opacity="0.6"/>
</svg>